<svg width="36" height="36" viewBox="0 0 36 36" fill="none" xmlns="http://www.w3.org/2000/svg">
<path d="M24.3643 32.2507C24.0998 32.3278 23.8878 32.5039 23.6562 32.6404C21.7526 33.7567 19.8512 34.8751 17.9367 36.0002C17.0057 35.4564 16.0812 34.9148 15.1545 34.3731C14.0268 33.7148 12.8969 33.0565 11.7692 32.4004C11.7036 32.363 11.6293 32.3344 11.5615 32.3014C11.3277 32.1208 11.0763 31.9689 10.8053 31.85C10.3748 31.5374 9.90272 31.2908 9.44813 31.02C8.23517 30.2978 7.01784 29.5801 5.80269 28.8601C5.72838 28.8051 5.65407 28.75 5.55573 28.6774C5.55573 28.4902 5.55573 28.2943 5.55573 28.0961C5.5601 27.9706 5.56884 27.8451 5.56884 27.7174C5.56884 25.6765 5.56884 23.6355 5.56884 21.5946C5.65626 21.5263 5.74149 21.4647 5.82454 21.4008C6.11303 21.2533 6.40371 21.1124 6.66597 20.9186C8.20894 20.0181 9.75411 19.1199 11.2971 18.2172C11.3124 18.2084 11.3168 18.1841 11.3321 18.1577C11.3408 18.0344 11.3473 17.9001 11.3583 17.7482C9.80656 16.8455 8.26358 15.9472 6.71842 15.0489C6.419 14.875 6.11959 14.7011 5.82236 14.5271C5.73712 14.4655 5.65407 14.4016 5.57758 14.3466C5.57758 11.9842 5.57758 9.6328 5.57758 7.28139C5.65626 7.21755 5.73275 7.15808 5.80706 7.09864C6.09555 6.9159 6.38404 6.73536 6.67252 6.55262C7.59918 6.01321 8.53022 5.48041 9.4525 4.93439C9.92458 4.65477 10.4185 4.40818 10.8622 4.08013C11.1441 3.98106 11.3823 3.80492 11.6249 3.63539C13.5438 2.52353 15.4605 1.41168 17.3794 0.302027C17.5455 0.205153 17.7138 0.108279 17.8973 0.000396729C18.4066 0.293221 18.9158 0.58825 19.425 0.883276C20.9833 1.78817 22.5394 2.69307 24.0977 3.59796C24.1479 3.62658 24.2026 3.6464 24.255 3.67062C24.5042 3.87097 24.8058 3.97004 25.079 4.12636C25.3521 4.28928 25.6231 4.45441 25.8985 4.61294C27.0197 5.25803 28.1409 5.89871 29.262 6.5416C29.5265 6.73315 29.8215 6.86747 30.1188 7.00178C30.2411 7.06342 30.2499 7.1713 30.2499 7.29459C30.2477 9.56893 30.2477 11.8433 30.2521 14.1176C30.2521 14.2497 30.2149 14.34 30.1122 14.4105C29.8303 14.5888 29.5483 14.7671 29.2664 14.9455C27.6797 15.8702 26.093 16.7971 24.5195 17.713C24.502 17.9045 24.4889 18.0586 24.4758 18.2172C26.0799 19.1507 27.6688 20.0776 29.2577 21.0023C29.5374 21.1828 29.8215 21.359 30.1253 21.4999C30.2783 21.5659 30.2455 21.7024 30.2455 21.8257C30.2499 23.8821 30.2521 25.9407 30.2564 27.9971C30.2543 28.1226 30.2543 28.2481 30.2455 28.3713C30.2346 28.5255 30.3045 28.7038 30.1297 28.8161C29.5309 29.1662 28.9298 29.5096 28.3332 29.8641C27.2557 30.5048 26.1826 31.1499 25.1096 31.7928C24.8517 31.9271 24.5828 32.046 24.3643 32.2507ZM16.9029 21.4933C16.8745 21.4691 16.8505 21.4382 16.8177 21.4184C15.3228 20.5422 13.8257 19.6681 12.3308 18.7918C12.2871 18.7676 12.2478 18.7412 12.1953 18.7874C12.215 20.824 12.1691 22.8693 12.2237 24.9279C14.1404 26.0508 16.0397 27.167 17.9323 28.2767C19.707 27.2353 21.4554 26.2093 23.23 25.1679C21.9799 24.4369 20.7713 23.7236 19.5562 23.0235C18.9289 22.6624 18.3257 22.2529 17.6657 21.9512C17.41 21.7971 17.1565 21.6452 16.9029 21.4933ZM17.5258 13.6509C17.7815 13.8402 18.0525 14.0031 18.341 14.1418C20.1047 15.1766 21.8684 16.2136 23.6606 17.266C23.6606 15.1612 23.6606 13.1115 23.6606 11.0507C21.7286 9.92342 19.8009 8.79835 17.8973 7.6865C16.1096 8.7323 14.3721 9.74947 12.5953 10.7887C13.6421 11.4007 14.6409 11.9886 15.6441 12.5698C16.2691 12.9309 16.8767 13.3272 17.5258 13.6509Z" fill="#FA0100"/>
<path d="M25.0768 4.1224C24.8036 3.96829 24.4998 3.86701 24.2529 3.66665C25.4003 2.99954 26.5498 2.33463 27.6972 1.66752C28.1999 1.37689 28.7113 1.09728 29.2031 0.789046C29.5484 0.57328 29.8544 0.584295 30.2018 0.795657C31.9612 1.85687 33.7271 2.90707 35.4952 3.95287C35.8383 4.15543 36 4.42403 36 4.83134C35.9935 13.6073 35.9935 22.3832 36 31.1591C36 31.6017 35.8274 31.8879 35.4493 32.1015C33.7446 33.0636 32.0486 34.0389 30.3767 35.0583C29.933 35.3291 29.5331 35.3269 29.0785 35.0539C27.5902 34.1622 26.0865 33.2992 24.5894 32.4229C24.5086 32.3745 24.4059 32.3502 24.3665 32.2468C24.5829 32.042 24.8539 31.9231 25.1118 31.7844C26.1455 32.3921 27.1793 32.9997 28.2152 33.6052C28.7223 33.9024 29.2315 34.1953 29.7341 34.4859C31.4257 33.5017 33.0955 32.5308 34.798 31.54C34.2844 31.2406 33.808 30.9632 33.3337 30.6836C32.2672 30.0583 31.1984 29.4308 30.1319 28.8055C30.3068 28.6933 30.2368 28.5149 30.2477 28.3608C30.2565 28.2353 30.2543 28.1098 30.2587 27.9865C31.8891 28.9266 33.5195 29.8645 35.1739 30.8179C35.1739 22.0794 35.1739 13.3959 35.1739 4.69484C33.502 3.69968 31.8344 2.70672 30.1188 1.68734C30.1188 3.50373 30.1188 5.24746 30.1188 6.9912C29.8238 6.85689 29.5265 6.7226 29.2621 6.53105C29.2621 4.93263 29.2621 3.3364 29.2621 1.68293C28.7987 1.94933 28.3901 2.18271 27.9814 2.42049C27.0132 2.99073 26.045 3.55657 25.0768 4.1224Z" fill="#C4B779"/>
<path d="M5.5537 28.0941C5.5537 28.2923 5.5537 28.4882 5.5537 28.6754C5.65205 28.748 5.72636 28.8031 5.80067 28.8581C4.27087 29.7432 2.74319 30.6283 1.16306 31.542C2.88744 32.5437 4.56592 33.5191 6.2334 34.4878C7.772 33.5984 9.28875 32.7221 10.8033 31.848C11.0743 31.9669 11.3257 32.1188 11.5595 32.2994C10.8667 32.7617 10.1258 33.1426 9.41114 33.5675C8.52164 34.0981 7.6212 34.6133 6.72951 35.1439C6.39513 35.3421 6.09134 35.3421 5.7504 35.1439C3.95397 34.0893 2.15092 33.0479 0.347864 32.0043C0.212362 31.9251 0.0877869 31.837 0.000366211 31.6873C0.000366211 22.5547 0.000366211 13.4111 0.000366211 4.24545C0.826492 3.75007 1.65699 3.25249 2.48749 2.75491C3.54309 2.12302 4.60307 1.49995 5.64987 0.850454C6.05856 0.59726 6.40824 0.579642 6.83223 0.832836C8.4211 1.78176 10.0253 2.70206 11.6251 3.63338C11.3825 3.80071 11.1443 3.97905 10.8623 4.07812C10.8099 4.05611 10.7509 4.0429 10.7028 4.01428C9.75645 3.46606 8.81231 2.91783 7.86598 2.36961C7.4857 2.14944 7.10105 1.93148 6.67269 1.68709C6.67269 3.34937 6.67269 4.94999 6.67269 6.55282C6.3842 6.73556 6.09571 6.91609 5.80722 7.09883C5.80722 5.31987 5.80722 3.54311 5.80722 1.71351C4.11351 2.72188 2.46345 3.70824 0.819936 4.68799C0.819936 13.4001 0.819936 22.0923 0.819936 30.822C1.62421 30.3553 2.38914 29.9039 3.16063 29.4636C3.95616 29.0056 4.73201 28.508 5.5537 28.0941Z" fill="#C4B779"/>
<path d="M6.71839 15.0489C6.64845 15.1062 6.65938 15.1877 6.65938 15.2647C6.66157 17.1494 6.66375 19.034 6.66594 20.9186C6.40367 21.1124 6.113 21.2533 5.82451 21.4008C5.82451 19.1111 5.82233 16.8191 5.82233 14.5293C6.11956 14.7011 6.41897 14.875 6.71839 15.0489Z" fill="#C4B779"/>
<path d="M29.2578 20.9985C29.319 20.9236 29.3059 20.8334 29.3059 20.7475C29.3059 18.8871 29.3059 17.0266 29.3059 15.164C29.3059 15.087 29.319 15.0077 29.2644 14.9394C29.5463 14.7611 29.8282 14.5828 30.1102 14.4044C30.1145 16.2913 30.1167 18.1781 30.1211 20.065C30.1211 20.5405 30.1233 21.0183 30.1255 21.4939C29.8217 21.353 29.5376 21.179 29.2578 20.9985Z" fill="#C4B779"/>
<path d="M17.5263 13.6511C17.5263 11.9381 17.5263 10.223 17.5263 8.51673C17.6421 8.38683 17.782 8.32297 17.911 8.25912C18.0792 8.29655 18.206 8.38462 18.3546 8.47489C18.3546 8.56075 18.3546 8.64883 18.3546 8.7347C18.3546 10.4498 18.3546 12.1627 18.3546 13.8778C18.3546 13.9659 18.3459 14.0518 18.3415 14.1398C18.053 14.0033 17.782 13.8404 17.5263 13.6511Z" fill="#C4B779"/>
<path d="M17.6637 21.9489C16.4201 22.6755 15.1744 23.4042 13.9308 24.1308C13.5964 24.3267 13.2621 24.5183 12.9233 24.7142C12.7834 24.6636 12.6654 24.5843 12.5518 24.4764C12.5518 24.3355 12.5518 24.1924 12.5518 24.0053C13.9898 23.1752 15.4454 22.3342 16.9009 21.4931C17.1566 21.6451 17.4102 21.797 17.6637 21.9489Z" fill="#C4B779"/>
</svg>
