<svg width="14" height="12" viewBox="0 0 14 12" fill="none" xmlns="http://www.w3.org/2000/svg">
<path d="M6.49515 2.82849C6.75547 3.0888 6.75547 3.51086 6.49515 3.77118C6.23479 4.03154 5.81265 4.0315 5.55234 3.77108L4.33382 2.552L4.33336 10.6667C4.33334 11.0349 4.03487 11.3333 3.66669 11.3333C3.29849 11.3333 3 11.0348 3.00003 10.6666L3.00049 2.552L1.78105 3.77128C1.52069 4.03161 1.09859 4.0316 0.838244 3.77125C0.577885 3.5109 0.577884 3.08877 0.838243 2.82841L2.95955 0.707106C3.35007 0.316582 3.98324 0.316582 4.37376 0.707105L6.49515 2.82849ZM13.1618 8.22884C13.4221 8.48917 13.4221 8.91122 13.1618 9.17154L11.0404 11.2929C10.6499 11.6834 10.0167 11.6834 9.62619 11.2929L7.50491 9.17161C7.24455 8.91126 7.24454 8.48914 7.50489 8.22877C7.76524 7.9684 8.18737 7.96838 8.44774 8.22873L9.66716 9.448L9.66667 1.33337C9.66665 0.965167 9.96513 0.666667 10.3333 0.666667C10.7015 0.666667 11 0.965119 11 1.33329L11.0005 9.448L12.219 8.22893C12.4793 7.9685 12.9015 7.96845 13.1618 8.22884Z" fill="white"/>
</svg>
