<svg width="24" height="24" viewBox="0 0 24 24" fill="none" xmlns="http://www.w3.org/2000/svg">
<path d="M12.0007 10.5865L16.2433 6.34384C16.6338 5.95331 17.267 5.95331 17.6575 6.34383C18.048 6.73435 18.048 7.36751 17.6575 7.75803L13.4149 12.0007L17.6575 16.2433C18.048 16.6338 18.048 17.267 17.6575 17.6575C17.267 18.048 16.6338 18.048 16.2433 17.6575L12.0007 13.4149L7.75803 17.6575C7.36751 18.048 6.73435 18.048 6.34383 17.6575C5.95331 17.267 5.95331 16.6338 6.34384 16.2433L10.5865 12.0007L6.34382 7.75803C5.9533 7.36751 5.9533 6.73435 6.34382 6.34382C6.73435 5.9533 7.36751 5.9533 7.75803 6.34382L12.0007 10.5865Z" fill="white"/>
</svg>
