<svg width="171" height="32" viewBox="0 0 171 32" fill="none" xmlns="http://www.w3.org/2000/svg">
<path d="M21.6571 28.6671C21.422 28.7356 21.2336 28.8922 21.0277 29.0135C19.3356 30.0057 17.6455 30.9999 15.9437 32C15.1161 31.5166 14.2943 31.0352 13.4706 30.5537C12.4682 29.9686 11.4638 29.3834 10.4614 28.8002C10.4031 28.7669 10.337 28.7415 10.2768 28.7121C10.0689 28.5516 9.84554 28.4166 9.60464 28.3109C9.22193 28.033 8.80231 27.8138 8.39823 27.5731C7.32004 26.9312 6.23796 26.2932 5.15782 25.6532C5.09177 25.6043 5.02571 25.5554 4.93829 25.4908C4.93829 25.3244 4.93829 25.1503 4.93829 24.9741C4.94218 24.8626 4.94995 24.751 4.94995 24.6375C4.94995 22.8233 4.94995 21.0091 4.94995 19.1949C5.02766 19.1343 5.10342 19.0795 5.17725 19.0227C5.43368 18.8916 5.69206 18.7663 5.92518 18.5941C7.29672 17.7937 8.67021 16.9952 10.0417 16.1928C10.0553 16.1849 10.0592 16.1634 10.0728 16.1399C10.0806 16.0303 10.0864 15.9109 10.0961 15.7759C8.71683 14.9735 7.34529 14.175 5.97181 13.3765C5.70566 13.2219 5.43951 13.0673 5.1753 12.9127C5.09954 12.8579 5.02572 12.8012 4.95772 12.7523C4.95772 10.6523 4.95772 8.56218 4.95772 6.47203C5.02766 6.41528 5.09565 6.36242 5.1617 6.30958C5.41814 6.14714 5.67457 5.98667 5.93101 5.82423C6.75471 5.34475 7.5823 4.87115 8.40212 4.38579C8.82174 4.13725 9.26079 3.91805 9.65515 3.62645C9.90576 3.53838 10.1175 3.38181 10.3332 3.23112C12.0388 2.2428 13.7426 1.25448 15.4483 0.268117C15.5959 0.182006 15.7455 0.0958963 15.9087 0C16.3613 0.26029 16.814 0.522539 17.2666 0.784786C18.6518 1.58914 20.035 2.3935 21.4201 3.19785C21.4648 3.22329 21.5134 3.24091 21.56 3.26244C21.7814 3.44053 22.0495 3.52859 22.2924 3.66754C22.5352 3.81236 22.7761 3.95915 23.0209 4.10006C24.0175 4.67348 25.0141 5.24297 26.0107 5.81444C26.2458 5.9847 26.508 6.1041 26.7722 6.22348C26.881 6.27828 26.8888 6.37417 26.8888 6.48376C26.8868 8.50541 26.8868 10.5271 26.8907 12.5487C26.8907 12.6661 26.8577 12.7464 26.7664 12.809C26.5158 12.9675 26.2652 13.126 26.0146 13.2846C24.6042 14.1065 23.1938 14.9305 21.795 15.7446C21.7795 15.9149 21.7678 16.0519 21.7562 16.1928C23.1821 17.0226 24.5945 17.8465 26.0068 18.6685C26.2555 18.8289 26.508 18.9855 26.7781 19.1108C26.914 19.1695 26.8849 19.2908 26.8849 19.4004C26.8888 21.2283 26.8907 23.0582 26.8946 24.8861C26.8927 24.9976 26.8927 25.1092 26.8849 25.2188C26.8752 25.3558 26.9374 25.5143 26.7819 25.6141C26.2496 25.9253 25.7154 26.2306 25.185 26.5457C24.2273 27.1152 23.2734 27.6886 22.3196 28.26C22.0903 28.3794 21.8514 28.4851 21.6571 28.6671ZM15.0248 19.1049C14.9995 19.0834 14.9781 19.056 14.949 19.0384C13.6202 18.2594 12.2894 17.4825 10.9606 16.7036C10.9218 16.682 10.8868 16.6586 10.8402 16.6997C10.8577 18.51 10.8169 20.328 10.8655 22.1579C12.5692 23.156 14.2574 24.1483 15.9398 25.1346C17.5172 24.2089 19.0714 23.2969 20.6489 22.3712C19.5376 21.7215 18.4633 21.0874 17.3832 20.4651C16.8256 20.1441 16.2895 19.7801 15.7028 19.512C15.4755 19.375 15.2501 19.2399 15.0248 19.1049ZM15.5784 12.1338C15.8057 12.3021 16.0466 12.4469 16.303 12.5702C17.8708 13.4901 19.4386 14.4118 21.0316 15.3473C21.0316 13.4764 21.0316 11.6543 21.0316 9.82253C19.3142 8.82051 17.6008 7.82045 15.9087 6.83213C14.3196 7.76173 12.7751 8.66589 11.1957 9.58963C12.1263 10.1337 13.0141 10.6562 13.9058 11.1729C14.4614 11.4938 15.0014 11.8461 15.5784 12.1338Z" fill="#FA0100"/>
<path d="M22.291 3.66427C22.0482 3.52727 21.7781 3.43725 21.5586 3.25915C22.5785 2.66616 23.6004 2.07513 24.6203 1.48213C25.0671 1.2238 25.5217 0.975256 25.9588 0.701266C26.2657 0.509474 26.5377 0.519265 26.8466 0.707143C28.4105 1.65045 29.9802 2.58396 31.5518 3.51357C31.8568 3.69362 32.0006 3.93238 32.0006 4.29444C31.9947 12.0953 31.9947 19.8962 32.0006 27.6971C32.0006 28.0904 31.8471 28.3448 31.511 28.5347C29.9957 29.3899 28.4882 30.2569 27.002 31.163C26.6077 31.4037 26.2521 31.4018 25.8481 31.1591C24.5251 30.3665 23.1885 29.5993 21.8578 28.8204C21.7859 28.7773 21.6946 28.7558 21.6596 28.6638C21.8519 28.4818 22.0928 28.3761 22.3221 28.2528C23.241 28.793 24.1599 29.3332 25.0807 29.8713C25.5314 30.1356 25.984 30.3958 26.4309 30.6542C27.9345 29.7794 29.4187 28.9163 30.9321 28.0356C30.4756 27.7695 30.052 27.5229 29.6305 27.2743C28.6825 26.7185 27.7325 26.1608 26.7844 25.605C26.9399 25.5051 26.8777 25.3466 26.8874 25.2096C26.8952 25.0981 26.8932 24.9865 26.8971 24.8769C28.3464 25.7126 29.7956 26.5463 31.2662 27.3937C31.2662 19.6261 31.2662 11.9074 31.2662 4.1731C29.7801 3.28851 28.2978 2.40587 26.7728 1.49975C26.7728 3.11433 26.7728 4.66432 26.7728 6.21432C26.5105 6.09494 26.2463 5.97556 26.0112 5.8053C26.0112 4.38447 26.0112 2.96559 26.0112 1.49584C25.5994 1.73264 25.2361 1.94008 24.8728 2.15145C24.0122 2.65833 23.1516 3.1613 22.291 3.66427Z" fill="#C4B779"/>
<path d="M4.93633 24.9722C4.93633 25.1483 4.93633 25.3225 4.93633 25.4888C5.02375 25.5534 5.0898 25.6024 5.15585 25.6513C3.79602 26.438 2.43808 27.2248 1.03351 28.037C2.5663 28.9274 4.05829 29.7944 5.5405 30.6555C6.90816 29.8649 8.25639 29.0859 9.60268 28.309C9.84357 28.4147 10.067 28.5497 10.2748 28.7102C9.65901 29.1212 9.00044 29.4597 8.36518 29.8374C7.5745 30.3091 6.77411 30.7671 5.9815 31.2387C5.68426 31.4149 5.41423 31.4149 5.11117 31.2387C3.51433 30.3013 1.91161 29.3756 0.308889 28.4479C0.188442 28.3775 0.0777077 28.2992 0 28.1661C0 20.0482 0 11.9205 0 3.77324C0.734338 3.3329 1.47256 2.8906 2.21079 2.4483C3.14911 1.88662 4.09131 1.33278 5.0218 0.755444C5.38509 0.530382 5.69592 0.514722 6.0728 0.739785C7.48514 1.58328 8.91108 2.40133 10.3331 3.22917C10.1175 3.37791 9.90574 3.53643 9.65513 3.6245C9.60851 3.60493 9.55605 3.59319 9.51331 3.56775C8.67213 3.08044 7.83288 2.59312 6.9917 2.10581C6.65367 1.91011 6.31175 1.71636 5.93098 1.49913C5.93098 2.97671 5.93098 4.3995 5.93098 5.82424C5.67455 5.98668 5.41811 6.14715 5.16168 6.30959C5.16168 4.72828 5.16168 3.14893 5.16168 1.52261C3.65615 2.41895 2.18942 3.29572 0.72851 4.16661C0.72851 11.9107 0.72851 19.6372 0.72851 27.397C1.44342 26.9821 2.12337 26.5809 2.80914 26.1895C3.51628 25.7824 4.20593 25.3401 4.93633 24.9722Z" fill="#C4B779"/>
<path d="M5.97149 13.3764C5.90933 13.4273 5.91904 13.4997 5.91904 13.5682C5.92098 15.2435 5.92292 16.9187 5.92487 18.594C5.69174 18.7662 5.43337 18.8914 5.17693 19.0226C5.17693 16.9872 5.17499 14.9499 5.17499 12.9146C5.43919 13.0672 5.70534 13.2218 5.97149 13.3764Z" fill="#C4B779"/>
<path d="M26.007 18.6651C26.0614 18.5986 26.0498 18.5183 26.0498 18.442C26.0498 16.7883 26.0498 15.1346 26.0498 13.4789C26.0498 13.4104 26.0614 13.3399 26.0128 13.2793C26.2635 13.1207 26.5141 12.9622 26.7647 12.8037C26.7686 14.4809 26.7705 16.1581 26.7744 17.8353C26.7744 18.258 26.7763 18.6827 26.7783 19.1055C26.5082 18.9802 26.2557 18.8256 26.007 18.6651Z" fill="#C4B779"/>
<path d="M15.5789 12.1342C15.5789 10.6116 15.5789 9.08702 15.5789 7.57029C15.6818 7.45483 15.8062 7.39806 15.9208 7.34131C16.0704 7.37458 16.183 7.45286 16.3151 7.5331C16.3151 7.60942 16.3151 7.68772 16.3151 7.76404C16.3151 9.2886 16.3151 10.8112 16.3151 12.3357C16.3151 12.414 16.3074 12.4903 16.3035 12.5686C16.047 12.4473 15.8062 12.3025 15.5789 12.1342Z" fill="#C4B779"/>
<path d="M15.701 19.5099C14.5956 20.1557 13.4883 20.8035 12.3829 21.4493C12.0857 21.6235 11.7884 21.7937 11.4873 21.9679C11.363 21.9229 11.2581 21.8525 11.157 21.7566C11.157 21.6313 11.157 21.5041 11.157 21.3378C12.4353 20.5999 13.7292 19.8523 15.023 19.1047C15.2503 19.2398 15.4757 19.3748 15.701 19.5099Z" fill="#C4B779"/>
<path d="M170.431 11.6675V14.03H162.976V11.6675H170.431ZM164.817 8.5625H167.873V20.7294C167.873 21.14 167.935 21.455 168.059 21.6744C168.188 21.8881 168.357 22.0344 168.565 22.1131C168.774 22.1919 169.004 22.2313 169.258 22.2313C169.449 22.2313 169.624 22.2172 169.781 22.1891C169.944 22.1609 170.068 22.1356 170.153 22.1131L170.668 24.5009C170.504 24.5572 170.271 24.6191 169.967 24.6866C169.669 24.7541 169.303 24.7934 168.869 24.8047C168.104 24.8272 167.414 24.7119 166.801 24.4588C166.187 24.2 165.7 23.8006 165.34 23.2606C164.986 22.7206 164.811 22.0456 164.817 21.2356V8.5625Z" fill="#232429"/>
<path d="M157.196 24.8807C155.896 24.8807 154.773 24.6107 153.828 24.0707C152.888 23.525 152.165 22.7544 151.658 21.7588C151.151 20.7575 150.898 19.5791 150.898 18.2235C150.898 16.8903 151.151 15.7203 151.658 14.7135C152.17 13.701 152.885 12.9135 153.802 12.351C154.72 11.7828 155.798 11.4988 157.036 11.4988C157.835 11.4988 158.59 11.6282 159.299 11.8869C160.014 12.14 160.644 12.5338 161.19 13.0682C161.742 13.6025 162.175 14.2832 162.49 15.11C162.805 15.9313 162.963 16.91 162.963 18.0463V18.9828H152.333V16.9241H160.033C160.028 16.3391 159.901 15.8188 159.653 15.3632C159.406 14.9019 159.06 14.5391 158.615 14.2747C158.176 14.0103 157.664 13.8782 157.078 13.8782C156.454 13.8782 155.905 14.03 155.432 14.3338C154.959 14.6319 154.59 15.0257 154.326 15.515C154.067 15.9988 153.935 16.5303 153.929 17.1097V18.9069C153.929 19.6607 154.067 20.3075 154.343 20.8475C154.619 21.3819 155.004 21.7925 155.499 22.0794C155.995 22.3607 156.575 22.5013 157.239 22.5013C157.683 22.5013 158.086 22.4394 158.446 22.3157C158.806 22.1863 159.119 21.9978 159.383 21.7503C159.648 21.5028 159.848 21.1963 159.983 20.8307L162.836 21.1513C162.656 21.905 162.313 22.5632 161.806 23.1257C161.305 23.6825 160.664 24.1157 159.881 24.425C159.099 24.7288 158.204 24.8807 157.196 24.8807Z" fill="#232429"/>
<path d="M142.83 20.5603L142.821 16.8731H143.311L147.971 11.6672H151.543L145.81 18.0459H145.177L142.83 20.5603ZM140.043 24.6272V7.34717H143.1V24.6272H140.043ZM148.182 24.6272L143.961 18.7294L146.021 16.5778L151.838 24.6272H148.182Z" fill="#232429"/>
<path d="M132.209 24.6273V11.6673H135.172V13.8273H135.308C135.544 13.0792 135.949 12.5026 136.523 12.0976C137.103 11.687 137.764 11.4817 138.507 11.4817C138.676 11.4817 138.865 11.4901 139.073 11.507C139.287 11.5183 139.464 11.5379 139.605 11.5661V14.3758C139.476 14.3308 139.27 14.2914 138.989 14.2576C138.713 14.2183 138.445 14.1986 138.187 14.1986C137.629 14.1986 137.128 14.3195 136.684 14.5614C136.245 14.7976 135.899 15.1267 135.645 15.5486C135.392 15.9704 135.265 16.457 135.265 17.0083V24.6273H132.209Z" fill="#232429"/>
<path d="M123.881 24.8891C123.059 24.8891 122.319 24.7428 121.66 24.4503C121.007 24.1522 120.489 23.7135 120.107 23.1341C119.73 22.5547 119.541 21.8403 119.541 20.991C119.541 20.2597 119.676 19.655 119.946 19.1769C120.217 18.6988 120.585 18.3163 121.052 18.0294C121.52 17.7425 122.046 17.526 122.631 17.3797C123.222 17.2278 123.833 17.1182 124.463 17.0507C125.223 16.9719 125.839 16.9016 126.312 16.8397C126.785 16.7722 127.128 16.671 127.342 16.536C127.562 16.3953 127.672 16.1788 127.672 15.8863V15.8357C127.672 15.2 127.483 14.7078 127.106 14.3591C126.729 14.0103 126.186 13.836 125.476 13.836C124.728 13.836 124.134 13.9991 123.695 14.3253C123.262 14.6516 122.969 15.0369 122.817 15.4813L119.963 15.0763C120.188 14.2888 120.56 13.6307 121.078 13.1019C121.596 12.5675 122.229 12.1682 122.977 11.9038C123.726 11.6338 124.553 11.4988 125.46 11.4988C126.084 11.4988 126.706 11.5719 127.325 11.7182C127.945 11.8644 128.51 12.1063 129.022 12.4438C129.535 12.7757 129.946 13.2285 130.255 13.8022C130.57 14.376 130.728 15.0932 130.728 15.9538V24.6275H127.79V22.8472H127.688C127.503 23.2072 127.241 23.5447 126.903 23.8597C126.571 24.1691 126.152 24.4194 125.645 24.6107C125.144 24.7963 124.556 24.8891 123.881 24.8891ZM124.674 22.6447C125.288 22.6447 125.82 22.5238 126.27 22.2819C126.72 22.0344 127.067 21.7082 127.309 21.3032C127.556 20.8982 127.68 20.4566 127.68 19.9785V18.4513C127.584 18.53 127.421 18.6032 127.19 18.6707C126.965 18.7382 126.712 18.7972 126.43 18.8478C126.149 18.8985 125.87 18.9435 125.595 18.9828C125.319 19.0222 125.08 19.056 124.877 19.0841C124.421 19.146 124.013 19.2472 123.653 19.3878C123.293 19.5285 123.008 19.7253 122.8 19.9785C122.592 20.226 122.488 20.5466 122.488 20.9403C122.488 21.5028 122.693 21.9275 123.104 22.2144C123.515 22.5013 124.038 22.6447 124.674 22.6447Z" fill="#232429"/>
<path d="M100.404 24.6275V11.6675H103.326V13.8697H103.478C103.748 13.1272 104.195 12.5478 104.82 12.1316C105.445 11.7097 106.191 11.4988 107.057 11.4988C107.935 11.4988 108.676 11.7125 109.278 12.14C109.886 12.5619 110.314 13.1385 110.561 13.8697H110.696C110.983 13.1497 111.467 12.576 112.148 12.1485C112.835 11.7153 113.648 11.4988 114.588 11.4988C115.782 11.4988 116.755 11.8757 117.51 12.6294C118.264 13.3832 118.641 14.4828 118.641 15.9285V24.6275H115.576V16.401C115.576 15.5966 115.362 15.0088 114.935 14.6375C114.507 14.2607 113.983 14.0722 113.364 14.0722C112.627 14.0722 112.05 14.3028 111.633 14.7641C111.223 15.2197 111.017 15.8132 111.017 16.5444V24.6275H108.02V16.2744C108.02 15.605 107.817 15.0707 107.412 14.6713C107.012 14.2719 106.489 14.0722 105.842 14.0722C105.403 14.0722 105.003 14.1847 104.643 14.4097C104.282 14.6291 103.995 14.9413 103.782 15.3463C103.568 15.7457 103.461 16.2125 103.461 16.7469V24.6275H100.404Z" fill="#232429"/>
<path d="M80.0474 9.97123V7.34717H93.8431V9.97123H88.4987V24.6272H85.3917V9.97123H80.0474Z" fill="#232429"/>
<path d="M61.4407 24.6272L56.5607 7.34717H59.9294L63.0448 20.0456H63.2052L66.5317 7.34717H69.5965L72.9315 20.054H73.0834L76.1989 7.34717H79.5676L74.6876 24.6272H71.5975L68.1359 12.5025H68.0008L64.5308 24.6272H61.4407Z" fill="#232429"/>
<path d="M52.6895 12.0976C52.6107 11.3608 52.2786 10.787 51.6932 10.3764C51.1134 9.96577 50.3592 9.76046 49.4305 9.76046C48.7776 9.76046 48.2175 9.8589 47.7504 10.0558C47.2832 10.2526 46.9258 10.5198 46.6781 10.8573C46.4304 11.1948 46.3038 11.5801 46.2982 12.0133C46.2982 12.3733 46.3798 12.6855 46.543 12.9498C46.7119 13.2142 46.9398 13.4392 47.2269 13.6248C47.514 13.8048 47.832 13.9567 48.1809 14.0805C48.5299 14.2042 48.8817 14.3083 49.2363 14.3926L50.8573 14.7976C51.5103 14.9495 52.1379 15.1548 52.7401 15.4136C53.348 15.6723 53.8912 15.9986 54.3696 16.3923C54.8537 16.7861 55.2364 17.2614 55.5178 17.8183C55.7993 18.3751 55.94 19.0276 55.94 19.7758C55.94 20.7883 55.6811 21.6798 55.1632 22.4505C54.6454 23.2155 53.8968 23.8145 52.9174 24.2477C51.9437 24.6752 50.7645 24.8889 49.3798 24.8889C48.0346 24.8889 46.8667 24.6808 45.876 24.2645C44.891 23.8483 44.1199 23.2408 43.5627 22.442C43.0111 21.6433 42.7128 20.6701 42.6677 19.5226H45.7494C45.7944 20.1245 45.9802 20.6252 46.3066 21.0245C46.6331 21.4239 47.058 21.722 47.5815 21.9189C48.1106 22.1158 48.7016 22.2142 49.3545 22.2142C50.0356 22.2142 50.6322 22.113 51.1444 21.9105C51.6622 21.7023 52.0675 21.4155 52.3602 21.0498C52.6529 20.6786 52.802 20.2455 52.8077 19.7505C52.802 19.3005 52.6698 18.9292 52.4108 18.6367C52.1519 18.3386 51.7889 18.0911 51.3217 17.8942C50.8602 17.6917 50.3198 17.5117 49.7007 17.3542L47.7335 16.848C46.3094 16.4823 45.1837 15.9283 44.3563 15.1858C43.5345 14.4376 43.1236 13.4448 43.1236 12.2073C43.1236 11.1892 43.3994 10.2976 43.951 9.53265C44.5083 8.76765 45.2653 8.17421 46.2222 7.75233C47.1791 7.32483 48.2626 7.11108 49.4727 7.11108C50.6997 7.11108 51.7748 7.32483 52.6979 7.75233C53.6266 8.17421 54.3555 8.76202 54.8846 9.51577C55.4137 10.2639 55.6867 11.1245 55.7036 12.0976H52.6895Z" fill="#232429"/>
</svg>
